<svg xmlns="http://www.w3.org/2000/svg" viewBox="0 0 512 512"><defs><style>.cls-1{fill:#601050;}.cls-2{fill:#fff;}</style></defs><g id="Background"><circle class="cls-1" cx="256" cy="256" r="166.67"/></g><g id="Icon_Name" data-name="Icon Name"><path class="cls-2" d="M191.43,271.74v5.08a276.65,276.65,0,0,1-24.1,24.1,101.15,101.15,0,0,1-21.45,14.61,46,46,0,0,1-20.23,5.12,29.39,29.39,0,0,1-14.49-3.36,21.49,21.49,0,0,1-9.14-9.81,35,35,0,0,1-3.09-15.27,53.43,53.43,0,0,1,2.23-14.73,80.91,80.91,0,0,1,6.44-15.7A139.69,139.69,0,0,1,118,245.41q6.14-8.43,14.42-17.73a164.74,164.74,0,0,1,16.95-16.6,115.11,115.11,0,0,1,15.16-11,69.16,69.16,0,0,1,12.61-5.94,31.71,31.71,0,0,1,9.65-1.95,11.44,11.44,0,0,1,6.64,1.88,11.89,11.89,0,0,1,4.22,5.46,21.59,21.59,0,0,1,1.49,8.29q0,8.82-6,19.64a116.4,116.4,0,0,1-15,20.9,134,134,0,0,1-17.15,16.45q-8.16,6.36-11.76,6.37a6.5,6.5,0,0,1-4.49-1.92A5.77,5.77,0,0,1,142.6,265q0-4.45,4.73-10.79a90.94,90.94,0,0,1,10.31-11.6q5.58-5.26,6.68-5.27c.36,0,.55.16.55.47a7,7,0,0,1-.82,2.42,8,8,0,0,0-.82,2.11c0,.42.15.62.47.62q1.32,0,7.65-7.11A110.48,110.48,0,0,0,183,220.14q5.28-8.55,5.28-14a5.44,5.44,0,0,0-1-3.48,3.53,3.53,0,0,0-2.93-1.21q-5.48,0-16.6,8.87a167.36,167.36,0,0,0-22.81,22.58,160.25,160.25,0,0,0-19.5,28.32q-7.8,14.6-7.81,25.7a26.23,26.23,0,0,0,1.92,10.7,14.69,14.69,0,0,0,5.62,6.64,16.44,16.44,0,0,0,9,2.35q11.32,0,25.7-8.83T191.43,271.74Z"/><path class="cls-2" d="M218,296a19,19,0,0,1-10.7-3.44,24.68,24.68,0,0,1-8.28-9.53,29.25,29.25,0,0,1-3.13-13.59q0-10,7.62-18.21T226,235.1a51.71,51.71,0,0,1-.78-6.95,34.1,34.1,0,0,1,3.32-14.85,38.21,38.21,0,0,1,8.63-11.83,40.94,40.94,0,0,1,11.25-7.5,28,28,0,0,1,11.33-2.62q6.26,0,10.08,3a9.44,9.44,0,0,1,3.83,7.77,20.3,20.3,0,0,1-3.25,11.33,36.78,36.78,0,0,1-8.28,8.95,140.06,140.06,0,0,1-12.38,8.51q-7.34,4.58-8.91,5.74a103.61,103.61,0,0,0,7.58,20.16,88.79,88.79,0,0,0,11-8.55q4-3.79,6.72-7t3.67-3.2c.47,0,.86.57,1.17,1.72a14.26,14.26,0,0,1,.47,3.75,23.46,23.46,0,0,1-1.72,9,37.61,37.61,0,0,1-4.88,8.44,91.54,91.54,0,0,1-7.85,9l5.15,5.62a21,21,0,0,0,1.72-1.8,14.21,14.21,0,0,1,1.56-1.6,1.93,1.93,0,0,1,1.18-.43,1.39,1.39,0,0,1,1.21.63,2.46,2.46,0,0,1,.43,1.4c0,2.14-1.52,5.72-4.53,10.75s-5.53,7.53-7.5,7.53a4.65,4.65,0,0,1-3-1.28,26.63,26.63,0,0,1-3.6-4.15c-1.4-1.9-2.55-3.5-3.43-4.8a116.25,116.25,0,0,1-16,10.55Q223.15,296,218,296Zm10.55-50.7a68,68,0,0,0-10.27,8.59,49.74,49.74,0,0,0-7.11,8.94q-2.62,4.35-2.62,7.23c0,3.86,1.74,5.78,5.23,5.78q3.82,0,10.39-2.54A56.5,56.5,0,0,0,237.29,266Q233.86,258,228.54,245.34ZM239.09,222v3.2q11.25-6.33,17.46-13.36t6.21-11.17q0-3.53-3.52-3.52c-2.13,0-4.84,1.27-8.12,3.79a35.56,35.56,0,0,0-8.48,9.53A21.73,21.73,0,0,0,239.09,222Z"/><path class="cls-2" d="M403,271.74v5.39q-7.42,7-12.62,11.21A123.87,123.87,0,0,1,380,296a56.27,56.27,0,0,1-8.55,4.84,15.31,15.31,0,0,1-5.82,1.45,11.83,11.83,0,0,1-9.45-4.3,16.46,16.46,0,0,1-3.68-11.09,40.21,40.21,0,0,1,3.17-15.47,79.3,79.3,0,0,1,9-15.82q5.87-8.16,14.69-18.32,6.56-7.5,6.56-8.44a1.31,1.31,0,0,0-.39-.94,1.2,1.2,0,0,0-.86-.39q-1.48,0-9.14,6.57a271.22,271.22,0,0,0-19.65,19.29q-12,12.74-25.9,30.32-.78.93-5,6.36a72,72,0,0,1-5.9,7.07,4.71,4.71,0,0,1-3,1.64c-1.46,0-2.73-1.47-3.79-4.41A27.32,27.32,0,0,1,310.8,285a13.45,13.45,0,0,1,2-6.57q2-3.51,8.67-12.61t11-15.36q4.38-6.24,9.61-15.15,3.67-6.18,5.43-9.85a15.39,15.39,0,0,0,1.76-6.48c0-1.61-.47-2.42-1.41-2.42q-3,0-11.17,7.93T316.47,248q-12.08,15.63-25.2,36.17-4.29,7-6.09,9.46t-4,2.42c-1.83,0-3.53-1.94-5.12-5.82s-2.38-7-2.38-9.42a4.74,4.74,0,0,1,.93-2.57q10.32-13.75,17-23.36t11.79-18.24a119.38,119.38,0,0,0,7.5-14.22q2.36-5.59,2.35-8.79,0-3.36-3.05-3.36-2.51,0-8.52,3.2t-15.19,8.75q-9.18,5.55-14.73,8.48c-3.7,1.95-6.45,2.93-8.28,2.93s-2.58-1-2.58-2.89a56.7,56.7,0,0,1,1.1-7.54,36.46,36.46,0,0,1,2.26-8.32c1.1-2.08,3.9-4.85,8.4-8.28s7-5.16,7.46-5.16.63.18.63.55c0,.2-.21.52-.63.93a51.15,51.15,0,0,0-4.76,4.22,7.23,7.23,0,0,0-2,3.6A180.38,180.38,0,0,1,299,197.64q11.28-4.48,15.66-4.49,2.19,0,4.14,2.93a30.52,30.52,0,0,1,3.32,6.8,20.91,20.91,0,0,1,1.37,5,27.66,27.66,0,0,1-2,9.41q-2,5.43-5.51,12.62t-8.63,18q4.06-5.24,7.73-9.69t7.31-8.67c2.42-2.82,4.88-5.65,7.38-8.52a103.6,103.6,0,0,1,11.41-11.21A100.25,100.25,0,0,1,353,201q5.51-3.41,7.46-3.4c1.83,0,3.45,1,4.89,3a10.88,10.88,0,0,1,2.15,6.44q0,2.28-3,8.68t-8.68,16.4q-5.7,10-15.07,25.78,8.89-9.45,18.51-19.45t14.3-14.61a93.13,93.13,0,0,1,7.81-7q4.29-3.28,8.63-7.07l6.84-6a33.88,33.88,0,0,1,4.45-3.36,7.1,7.1,0,0,1,3.6-1.17c1.35,0,3.06,1.56,5.11,4.69s3.09,5.13,3.09,6a6.66,6.66,0,0,1-1.84,3.9q-1.83,2.27-7.61,8.44a186.59,186.59,0,0,0-18.44,23,126.9,126.9,0,0,0-11.84,21.17q-4,9.57-4,15.12c0,2.29.43,4,1.29,5a4.92,4.92,0,0,0,4,1.56,11.4,11.4,0,0,0,4.65-.94,32.26,32.26,0,0,0,4.77-2.66c1.74-1.14,3.4-2.23,5-3.28,2.19-1.3,4.33-2.69,6.44-4.18s3.75-2.65,4.92-3.51S402.42,272.11,403,271.74Z"/></g></svg>